HIERARCHY
ROOT Hips
{
 OFFSET 0.000000 0.000000 0.000000
 CHANNELS 6 Xposition Yposition Zposition Yrotation Xrotation Zrotation
 JOINT Chest
 {
  OFFSET 0.000000 9.585900 0.002600
  CHANNELS 3 Yrotation Xrotation Zrotation
  JOINT Chest2
  {
   OFFSET 0.000000 9.601200 -0.005300
   CHANNELS 3 Yrotation Xrotation Zrotation
   JOINT Chest3
   {
    OFFSET 0.000000 9.561800 0.000000
    CHANNELS 3 Yrotation Xrotation Zrotation
    JOINT Chest4
    {
     OFFSET 0.000000 9.552100 0.000000
     CHANNELS 3 Yrotation Xrotation Zrotation
     JOINT Neck
     {
      OFFSET 0.000000 14.453000 0.000000
      CHANNELS 3 Yrotation Xrotation Zrotation
      JOINT Head
      {
       OFFSET 0.000000 8.936500 -0.011300
       CHANNELS 3 Yrotation Xrotation Zrotation
       End Site
       {
        OFFSET 0.000000 17.073600 -0.006000
       }
      }
     }
     JOINT RightCollar
     {
      OFFSET -2.921100 9.558500 0.000000
      CHANNELS 3 Yrotation Xrotation Zrotation
      JOINT RightShoulder
      {
       OFFSET -13.519700 0.000000 0.000000
       CHANNELS 3 Yrotation Xrotation Zrotation
       JOINT RightElbow
       {
        OFFSET 0.000000 -29.696600 0.000000
        CHANNELS 3 Yrotation Xrotation Zrotation
        JOINT RightWrist
        {
         OFFSET 0.000000 -24.004700 0.000000
         CHANNELS 3 Yrotation Xrotation Zrotation
         End Site
         {
          OFFSET 0.000000 -17.728500 0.000000
         }
        }
       }
      }
     }
     JOINT LeftCollar
     {
      OFFSET 2.921100 9.558500 0.000000
      CHANNELS 3 Yrotation Xrotation Zrotation
      JOINT LeftShoulder
      {
       OFFSET 13.519700 0.000000 0.000000
       CHANNELS 3 Yrotation Xrotation Zrotation
       JOINT LeftElbow
       {
        OFFSET 0.000000 -29.696600 0.000000
        CHANNELS 3 Yrotation Xrotation Zrotation
        JOINT LeftWrist
        {
         OFFSET 0.000000 -24.004700 0.000000
         CHANNELS 3 Yrotation Xrotation Zrotation
         End Site
         {
          OFFSET 0.000000 -17.728500 0.000000
         }
        }
       }
      }
     }
    }
   }
  }
 }
 JOINT RightHip
 {
  OFFSET -7.771700 -0.012900 -0.001300
  CHANNELS 3 Yrotation Xrotation Zrotation
  JOINT RightKnee
  {
   OFFSET 0.000000 -40.869800 0.001200
   CHANNELS 3 Yrotation Xrotation Zrotation
   JOINT RightAnkle
   {
    OFFSET 0.000000 -39.717900 0.002100
    CHANNELS 3 Yrotation Xrotation Zrotation
    JOINT RightToe
    {
     OFFSET 0.000000 -4.965400 11.033500
     CHANNELS 3 Yrotation Xrotation Zrotation
     End Site
     {
      OFFSET 0.000000 -1.423100 5.872300
     }
    }
   }
  }
 }
 JOINT LeftHip
 {
  OFFSET 7.771700 -0.012900 -0.001300
  CHANNELS 3 Yrotation Xrotation Zrotation
  JOINT LeftKnee
  {
   OFFSET 0.000000 -40.869800 0.001200
   CHANNELS 3 Yrotation Xrotation Zrotation
   JOINT LeftAnkle
   {
    OFFSET 0.000000 -39.717900 0.002100
    CHANNELS 3 Yrotation Xrotation Zrotation
    JOINT LeftToe
    {
     OFFSET 0.000000 -4.965400 11.033500
     CHANNELS 3 Yrotation Xrotation Zrotation
     End Site
     {
      OFFSET 0.000000 -1.423100 5.872300
     }
    }
   }
  }
 }
}
MOTION
Frames: 9
Frame Time: 0.008333
-15.113778 58.342977 54.623666 179.952212 -30.468332 -2.473167 1.887683 22.529681 4.575904 0.126658 3.270158 0.384318 0.226720 5.248017 0.648530 1.128896 19.135053 2.493942 -1.641181 14.360410 -1.407990 -2.544677 -9.110434 -2.029985 4.842201 -4.495416 -0.901975 25.274166 -32.898311 -28.391173 -146.908691 -70.542510 -170.551554 22.368990 -26.895952 -64.408368 -9.923552 -8.357993 -3.449477 -8.899053 -29.019349 5.101341 167.893291 -70.884938 163.957144 -2.428346 -9.144380 34.188757 5.756272 -40.700284 -7.015307 1.123564 68.340043 1.245896 5.423090 8.581814 7.033137 -0.066675 -4.738028 0.302811 -13.211933 -47.834348 2.196071 25.711033 64.780422 23.203281 -12.976382 35.725437 2.176625 0.075758 -18.385198 -7.204959
-15.106832 58.343137 54.619789 179.924768 -30.479100 -2.535536 1.938958 22.561734 4.644677 0.128029 3.262685 0.387540 0.230920 5.247685 0.648465 1.134499 19.122587 2.500614 -1.638424 14.352597 -1.421219 -2.533959 -9.149082 -2.042826 4.843000 -4.491564 -0.920613 25.271318 -32.904762 -28.393387 -147.031803 -70.531085 -170.443830 22.356729 -26.913673 -64.419153 -9.940442 -8.362338 -3.452957 -8.918435 -29.035670 5.133140 167.986505 -70.845027 163.869038 -2.437775 -9.120375 34.205413 5.705952 -40.682320 -6.911415 1.106433 68.311321 1.245901 5.424406 8.605297 7.019601 -0.065413 -5.003075 0.318460 -13.271083 -47.806874 2.299235 25.600186 64.815170 23.104956 -12.857871 35.718693 2.237109 0.042864 -18.440627 -7.233576
-15.112762 58.340353 54.619414 179.911638 -30.462790 -2.529566 1.947401 22.553958 4.640453 0.123994 3.271153 0.380877 0.233048 5.246915 0.649983 1.135825 19.121670 2.497183 -1.632843 14.332176 -1.444242 -2.514768 -9.179272 -2.040823 4.853207 -4.501780 -0.931505 25.278611 -32.910363 -28.397872 -147.167585 -70.523976 -170.333409 22.321221 -26.921103 -64.424582 -9.953608 -8.377222 -3.445881 -8.933772 -29.051981 5.163672 168.076514 -70.773419 163.751366 -2.403583 -9.047863 34.259840 5.712070 -40.696710 -6.927713 1.122208 68.305029 1.279148 5.429967 8.615175 7.004222 -0.063023 -5.212762 0.334706 -13.283455 -47.823651 2.294723 25.641265 64.812999 23.142992 -12.810248 35.712278 2.275330 0.030281 -18.482973 -7.256038
-15.122551 58.337425 54.618927 179.894269 -30.445869 -2.498444 1.944641 22.556038 4.600976 0.129497 3.261498 0.387495 0.221446 5.270596 0.632742 1.144547 19.115333 2.492441 -1.615461 14.304946 -1.433781 -2.490279 -9.228754 -2.068357 4.886614 -4.524387 -0.957432 25.252989 -32.923212 -28.376098 -147.312725 -70.510289 -170.219252 22.325834 -26.935288 -64.439376 -9.957599 -8.398867 -3.423801 -8.972591 -29.088164 5.213322 168.103783 -70.733304 163.721255 -2.415560 -9.010794 34.291618 5.741940 -40.712781 -6.969571 1.148767 68.305297 1.309129 5.430476 8.615822 6.999263 -0.061154 -5.376783 0.348461 -13.257483 -47.835369 2.240786 25.689879 64.795758 23.197285 -12.754029 35.673659 2.312290 0.004456 -18.492193 -7.272328
-15.126886 58.334570 54.619123 179.903227 -30.422576 -2.511754 1.927814 22.567581 4.590408 0.140550 3.236083 0.398162 0.217365 5.277691 0.627408 1.152553 19.103308 2.497521 -1.613190 14.300704 -1.434770 -2.463861 -9.268122 -2.101369 4.896208 -4.525376 -0.975517 25.253849 -32.921834 -28.388996 -147.456067 -70.487897 -170.111217 22.329142 -26.945754 -64.444466 -9.960244 -8.401534 -3.421925 -9.019755 -29.133296 5.262070 168.109213 -70.700460 163.712812 -2.461104 -9.023546 34.290970 5.721389 -40.730208 -6.964484 1.151828 68.296589 1.315943 5.438769 8.615717 6.994705 -0.065453 -5.505775 0.359212 -13.277115 -47.849374 2.250053 25.692637 64.797295 23.205143 -12.733816 35.610663 2.306900 -0.004748 -18.468699 -7.259952
-15.130091 58.334123 54.615869 179.891016 -30.422246 -2.517976 1.940387 22.583344 4.593930 0.134694 3.243347 0.394152 0.225804 5.265296 0.632418 1.143510 19.107041 2.490666 -1.601234 14.285029 -1.441592 -2.432412 -9.303730 -2.124593 4.916388 -4.535081 -0.984507 25.243283 -32.929650 -28.386178 -147.583935 -70.474591 -169.997187 22.349022 -26.964829 -64.454756 -9.963493 -8.412380 -3.419917 -9.048906 -29.182686 5.320551 168.097960 -70.683175 163.720089 -2.467128 -9.016452 34.298344 5.711791 -40.723864 -6.946678 1.163771 68.286978 1.328499 5.436635 8.610346 6.986023 -0.065014 -5.557418 0.366687 -13.271800 -47.842265 2.256631 25.743612 64.794379 23.258034 -12.748987 35.569906 2.301447 0.016715 -18.474507 -7.260439
-15.147187 58.332028 54.614845 179.897628 -30.401283 -2.446399 1.899857 22.578381 4.503808 0.138212 3.238292 0.396960 0.226223 5.261164 0.634491 1.138785 19.132915 2.470227 -1.586405 14.255410 -1.435349 -2.414980 -9.332341 -2.136304 4.928827 -4.557902 -0.977980 25.233813 -32.936144 -28.387981 -147.769900 -70.455383 -169.830041 22.353367 -26.976636 -64.463758 -9.977201 -8.427981 -3.401441 -9.120797 -29.293167 5.426902 168.030903 -70.712091 163.826039 -2.471712 -9.012654 34.300284 5.763160 -40.743542 -7.061337 1.199032 68.304114 1.361638 5.436104 8.594522 6.983593 -0.059989 -5.604254 0.371439 -13.171860 -47.865082 2.121028 25.754438 64.775861 23.283868 -12.797080 35.502671 2.252853 0.065132 -18.450159 -7.238845
-15.158632 58.331329 54.612523 179.878824 -30.389157 -2.390951 1.894868 22.571672 4.450506 0.134067 3.251195 0.388901 0.228163 5.260275 0.633856 1.146112 19.123861 2.475382 -1.580823 14.247758 -1.446103 -2.409114 -9.346712 -2.133453 4.937475 -4.557081 -0.983535 25.225376 -32.942902 -28.390262 -148.000241 -70.431975 -169.624423 22.424212 -27.004385 -64.481025 -9.981156 -8.428107 -3.401029 -9.141341 -29.324063 5.458138 168.074877 -70.666654 163.765268 -2.484803 -9.004130 34.304909 5.816153 -40.754747 -7.130183 1.216509 68.312169 1.376288 5.433473 8.588652 6.987324 -0.058739 -5.686283 0.375738 -13.030280 -47.860899 1.983076 25.731410 64.743955 23.309090 -12.787828 35.426870 2.261991 0.054579 -18.412130 -7.236670
-15.161683 58.330489 54.611533 179.859139 -30.367382 -2.380549 1.909657 22.564207 4.443263 0.128232 3.268544 0.379032 0.230126 5.260433 0.632246 1.157169 19.098745 2.486121 -1.572001 14.237929 -1.471599 -2.388429 -9.385839 -2.136876 4.945789 -4.557558 -0.989787 25.216455 -32.951828 -28.386498 -148.185964 -70.413094 -169.457937 22.434498 -27.028495 -64.484233 -9.985851 -8.428451 -3.401167 -9.160658 -29.354577 5.490027 168.119893 -70.619767 163.701090 -2.506051 -8.991306 34.314705 5.815409 -40.776844 -7.120741 1.225329 68.307902 1.371109 5.433417 8.594794 6.986805 -0.054977 -5.756045 0.381140 -12.982627 -47.875272 1.961521 25.720497 64.738157 23.316940 -12.794710 35.402239 2.265666 0.065141 -18.423216 -7.240181
